<svg id="Layer_1" data-name="Layer 1" xmlns="http://www.w3.org/2000/svg" viewBox="0 0 237.76 54"><defs><style>.cls-1{fill:#fff;}.cls-2{fill:#ed7ca3;}</style></defs><title>logo-dark</title><path class="cls-1" d="M368.73,428.18v15.24h-7.34V404.37h7.24v15.74h12.66V404.25h7.47v39.18h-7.22V428.18Z" transform="translate(-179.35 -396.41)"/><path class="cls-1" d="M267.82,404.18h23.59v7.73H275.78v8.39h11.58v7.59H275.73v8h15.65v7.61H267.82Z" transform="translate(-179.35 -396.41)"/><path class="cls-1" d="M417.06,443.53h-23.5V404.37h23.55v7.52h-16v8.31H413v7.63H401.1v8.06h16Z" transform="translate(-179.35 -396.41)"/><path class="cls-1" d="M339.85,403.7c6,13.45,11.82,26.43,17.87,39.95a32.26,32.26,0,0,0-5.07.05c-2.59.43-3.95-.7-4.54-3-.66-2.6-2.3-3.31-4.89-3.13-3.34.23-6.7.06-10,.06-3.47,6.65-3.47,6.65-11.27,5.7C327.89,430.17,333.78,417.15,339.85,403.7Zm3.94,27.16c-1.32-2.93-2.51-5.61-4-8.83l-3.91,8.83Z" transform="translate(-179.35 -396.41)"/><path class="cls-2" d="M230.24,396.53c7,8.52,13.76,16.77,20.65,24.87,1.73,2,.28,3.22-.72,4.46-6.5,8.09-13.09,16.12-19.95,24.54l-5.75-4.28c5.25-6.48,10.29-12.9,15.58-19.1,2.18-2.56,2.84-4.29.17-7.14-4.47-4.77-8.34-10.11-12.55-15.14-3.14-3.76-3.21-3.72.49-6.83A23.36,23.36,0,0,1,230.24,396.53Z" transform="translate(-179.35 -396.41)"/><path class="cls-2" d="M200.42,450.41c-7.09-8.56-14-16.81-20.72-25.18a3.25,3.25,0,0,1,.09-3.11c6.71-8.53,13.56-17,20.61-25.71l5.74,4.37c-5.28,6.5-10.4,13-15.71,19.27-2,2.42-2.71,4.1-.13,6.85,4.48,4.77,8.34,10.11,12.54,15.15,3.24,3.89,3.3,3.85-.55,7.09C201.83,449.53,201.29,449.83,200.42,450.41Z" transform="translate(-179.35 -396.41)"/><path class="cls-1" d="M303.42,436.15h15.83v7.33H295.88V404.34h7.54Z" transform="translate(-179.35 -396.41)"/></svg>